nColumns=28
nRows=26
DataType=double
version=3
OpenSimVersion=4.1
endheader
time	ground_force_1_vx	ground_force_1_vy	ground_force_1_vz	ground_force_1_px	ground_force_1_py	ground_force_1_pz	ground_force_1_mx	ground_force_1_my	ground_force_1_mz	ground_force_2_vx	ground_force_2_vy	ground_force_2_vz	ground_force_2_px	ground_force_2_py	ground_force_2_pz	ground_force_2_mx	ground_force_2_my	ground_force_2_mz	ground_force_3_vx	ground_force_3_vy	ground_force_3_vz	ground_force_3_px	ground_force_3_py	ground_force_3_pz	ground_force_3_mx	ground_force_3_my	ground_force_3_mz
12.16	7.06071	457.213	-35.103	-0.259875	0.006	-0.410816	0	-8.95345	0	-12.3459	412.399	30.219	-0.227045	0.006	-0.858166	0	10.8112	0	0	0	0	0	0	0	0	0	0
12.17	7.63108	455.224	-35.0463	-0.260379	0.006	-0.410852	0	-8.93054	0	-12.2206	409.464	30.0591	-0.227247	0.006	-0.858154	0	10.7858	0	0	0	0	0	0	0	0	0	0
12.18	8.21205	453.101	-34.9288	-0.260902	0.006	-0.41091	0	-8.89669	0	-12.0243	406.736	29.9419	-0.227505	0.006	-0.858149	0	10.7642	0	0	0	0	0	0	0	0	0	0
12.19	8.78538	450.877	-34.7676	-0.261433	0.006	-0.410987	0	-8.85319	0	-11.7768	404.248	29.8685	-0.227813	0.006	-0.858149	0	10.7471	0	0	0	0	0	0	0	0	0	0
12.2	9.33133	448.606	-34.5814	-0.261961	0.006	-0.411077	0	-8.80186	0	-11.4988	402.024	29.8407	-0.228163	0.006	-0.858155	0	10.735	0	0	0	0	0	0	0	0	0	0
12.21	9.83098	446.356	-34.3887	-0.262476	0.006	-0.411175	0	-8.74488	0	-11.2097	400.087	29.8605	-0.228551	0.006	-0.858164	0	10.7283	0	0	0	0	0	0	0	0	0	0
12.22	10.2685	444.202	-34.2063	-0.262968	0.006	-0.411277	0	-8.68463	0	-10.9245	398.461	29.9294	-0.228971	0.006	-0.858177	0	10.7274	0	0	0	0	0	0	0	0	0	0
12.23	10.6311	442.223	-34.0504	-0.26343	0.006	-0.411377	0	-8.62341	0	-10.6525	397.171	30.0474	-0.229418	0.006	-0.858191	0	10.7324	0	0	0	0	0	0	0	0	0	0
12.24	10.9077	440.499	-33.936	-0.263852	0.006	-0.411469	0	-8.56333	0	-10.3969	396.245	30.2128	-0.229886	0.006	-0.858207	0	10.7433	0	0	0	0	0	0	0	0	0	0
12.25	11.0892	439.112	-33.8772	-0.264229	0.006	-0.411549	0	-8.50629	0	-10.157	395.722	30.4237	-0.230373	0.006	-0.858221	0	10.7605	0	0	0	0	0	0	0	0	0	0
12.26	11.1713	438.152	-33.8874	-0.264559	0.006	-0.411613	0	-8.45396	0	-9.92793	395.649	30.6782	-0.230877	0.006	-0.858236	0	10.7846	0	0	0	0	0	0	0	0	0	0
12.27	11.1547	437.714	-33.9798	-0.264839	0.006	-0.411658	0	-8.4078	0	-9.70197	396.085	30.9752	-0.231401	0.006	-0.858251	0	10.8164	0	0	0	0	0	0	0	0	0	0
12.28	11.0441	437.893	-34.1662	-0.26507	0.006	-0.411682	0	-8.36906	0	-9.47136	397.093	31.3154	-0.231944	0.006	-0.858267	0	10.8569	0	0	0	0	0	0	0	0	0	0
12.29	10.8457	438.783	-34.4575	-0.265252	0.006	-0.411681	0	-8.33894	0	-9.23019	398.737	31.7012	-0.232509	0.006	-0.858287	0	10.9065	0	0	0	0	0	0	0	0	0	0
12.3	10.5672	440.476	-34.8637	-0.265386	0.006	-0.411655	0	-8.31853	0	-8.97236	401.073	32.1356	-0.233091	0.006	-0.858312	0	10.9651	0	0	0	0	0	0	0	0	0	0
12.31	10.2185	443.052	-35.3937	-0.265472	0.006	-0.4116	0	-8.30888	0	-8.68875	404.148	32.6199	-0.233691	0.006	-0.858346	0	11.0324	0	0	0	0	0	0	0	0	0	0
12.32	9.81226	446.567	-36.0535	-0.265515	0.006	-0.411517	0	-8.31076	0	-8.36799	407.987	33.1537	-0.234302	0.006	-0.858393	0	11.107	0	0	0	0	0	0	0	0	0	0
12.33	9.36499	451.036	-36.8446	-0.265519	0.006	-0.411406	0	-8.32442	0	-7.99869	412.595	33.7357	-0.234919	0.006	-0.858455	0	11.1871	0	0	0	0	0	0	0	0	0	0
12.34	8.8985	456.429	-37.7635	-0.265492	0.006	-0.41127	0	-8.34935	0	-7.57004	417.95	34.3643	-0.23553	0.006	-0.858537	0	11.2696	0	0	0	0	0	0	0	0	0	0
12.35	8.43858	462.668	-38.8021	-0.265441	0.006	-0.41111	0	-8.38429	0	-7.07342	423.992	35.0361	-0.236121	0.006	-0.858642	0	11.3508	0	0	0	0	0	0	0	0	0	0
12.36	8.0128	469.629	-39.9482	-0.265375	0.006	-0.410931	0	-8.42728	0	-6.50671	430.617	35.7448	-0.236674	0.006	-0.858776	0	11.4262	0	0	0	0	0	0	0	0	0	0
12.37	7.6482	477.157	-41.1862	-0.265304	0.006	-0.410733	0	-8.47589	0	-5.87815	437.679	36.4819	-0.237167	0.006	-0.858943	0	11.4907	0	0	0	0	0	0	0	0	0	0
12.38	7.36744	485.061	-42.4978	-0.265234	0.006	-0.410521	0	-8.52727	0	-5.20733	445.006	37.239	-0.237579	0.006	-0.859148	0	11.5391	0	0	0	0	0	0	0	0	0	0
12.39	7.18798	493.126	-43.8611	-0.265172	0.006	-0.410298	0	-8.57836	0	-4.52233	452.407	38.0099	-0.23789	0.006	-0.859395	0	11.5659	0	0	0	0	0	0	0	0	0	0
12.4	7.12093	501.128	-45.2526	-0.265124	0.006	-0.410067	0	-8.62604	0	-3.85685	459.676	38.7898	-0.238083	0.006	-0.859688	0	11.5668	0	0	0	0	0	0	0	0	0	0
12.41	7.16813	508.844	-46.6482	-0.265093	0.006	-0.409831	0	-8.66726	0	-3.24734	466.607	39.5739	-0.238146	0.006	-0.860031	0	11.5378	0	0	0	0	0	0	0	0	0	0
